<?xml version="1.0" encoding="utf-8"?>
<!-- Generator: Adobe Illustrator 22.0.1, SVG Export Plug-In . SVG Version: 6.00 Build 0)  -->
<svg version="1.1" xmlns="http://www.w3.org/2000/svg" xmlns:xlink="http://www.w3.org/1999/xlink" x="0px" y="0px"
	 viewBox="0 0 1366 768" style="enable-background:new 0 0 1366 768;" xml:space="preserve">
<style type="text/css">
	.st0{display:none;}
	.st1{display:inline;fill:none;}
	.st2{display:inline;fill:#333333;}
	.st3{font-family:'OliversBarney-Regular';}
	.st4{font-size:103.1025px;}
	.st5{font-size:85.458px;}
	.st6{fill:#FFFFFF;}
</style>
<g id="Layer_1" class="st0">
	<polygon class="st1" points="449.4,186.8 473.3,186.8 473.3,186.8 449.4,186.8 	"/>
	<polygon class="st1" points="658.3,239.2 655.6,239.2 655.6,239.2 658.3,239.2 	"/>
	<text transform="matrix(0.7583 0 0 1 281.5039 487.4297)" class="st2 st3 st4">&lt;nuf&gt;</text>
	<polygon class="st1" points="474.4,453.8 498.3,453.8 498.3,453.8 474.4,453.8 	"/>
	<text transform="matrix(1.2862 0 0 1 382 411.6807)" class="st2 st3 st5">..</text>
</g>
<g id="Layer_2">
	<g>
		<g>
			<path class="st6" d="M272.1,204.6l-37.4-29.4l37.4-29.6v15.3l-18.7,14.3l18.7,14.1V204.6z"/>
			<path class="st6" d="M328.1,211.4h-19c-1.4-3.5-2.6-6.5-3.6-9.1c-1-2.6-1.9-5-2.8-7.2c-0.8-2.2-1.6-4.4-2.3-6.4s-1.4-4.3-2.2-6.8
				v29.6h-18.3v-72.3h19.8c1.6,3.9,2.9,7.3,3.9,10.1c1.1,2.8,2,5.3,2.7,7.4c0.8,2.1,1.4,4.1,2,5.8c0.5,1.7,1.1,3.4,1.6,5.2v-28.5
				h18.2V211.4z"/>
			<path class="st6" d="M381.9,200.3c0,3.7-1.2,6.5-3.6,8.4c-2.4,1.9-6.3,2.8-11.7,2.8h-15.8c-4.7,0-8.5-1-11.2-3.1
				c-2.7-2.1-4.1-4.7-4.1-8v-61.1h20.6v56.3h5.1v-56.3h20.7V200.3z"/>
			<path class="st6" d="M433.9,155.3H410v12.1h15v15.9h-15v28.1h-20.6v-72.3h44.6V155.3z"/>
			<path class="st6" d="M439.2,189.4l18.7-14.1l-18.7-14.3v-15.3l37.4,29.6l-37.4,29.4V189.4z"/>
		</g>
		<g>
			<path class="st6" d="M353.7,130c0,1.7-0.8,3.2-2.3,4.5c-1.5,1.3-3.4,1.9-5.5,1.9c-2.3,0-4.3-0.6-5.7-1.9
				c-1.5-1.3-2.2-2.8-2.2-4.5c0-1.7,0.7-3.2,2.2-4.5c1.5-1.3,3.4-1.9,5.7-1.9c2.1,0,4,0.6,5.5,1.9
				C352.9,126.8,353.7,128.3,353.7,130z"/>
			<path class="st6" d="M379.2,130c0,1.7-0.8,3.2-2.3,4.5c-1.5,1.3-3.4,1.9-5.5,1.9c-2.3,0-4.3-0.6-5.7-1.9
				c-1.5-1.3-2.2-2.8-2.2-4.5c0-1.7,0.7-3.2,2.2-4.5c1.5-1.3,3.4-1.9,5.7-1.9c2.1,0,4,0.6,5.5,1.9
				C378.4,126.8,379.2,128.3,379.2,130z"/>
		</g>
	</g>
</g>
</svg>
